PathFileType	4	(X/Y/Z)	C:/Users/beibeiliu/ov580/test_trc/User3\sequence.32_training_dense_left.trc
DataRate	CameraRate	NumFrames	NumMarkers	Units	OrigDataRate	OrigDataStartFrame	OrigNumFrames
120	120	17	19	mm	120	1	109
Frame#	Time	ThumbCMC			ThumbMCP			ThumbIP			ThumbTip			IndexMCP			IndexPIP			IndexTip			MiddleMCP			MiddlePIP			MiddleTip			RingMCP			RingPIP			RingTip			PinkyMCP			PinkyPIP			PinkyTip			BackHand1			BackHand2			BackHand3	
		X0	Y0	Z0	X1	Y1	Z1	X2	Y2	Z2	X3	Y3	Z3	X4	Y4	Z4	X5	Y5	Z5	X6	Y6	Z6	X7	Y7	Z7	X8	Y8	Z8	X9	Y9	Z9	X10	Y10	Z10	X11	Y11	Z11	X12	Y12	Z12	X13	Y13	Z13	X14	Y14	Z14	X15	Y15	Z15	X16	Y16	Z16	X17	Y17	Z17	X18	Y18	Z18	
0	0	-213.114	-21.5525	-70.8297	-206.961	-21.0951	-103.95	-204.658	-12.271	-133.405	-205.55	-12.7424	-160.281	-266.463	-32.3273	-126.249	-263.956	-31.0883	-153.832	-257.529	-33.9591	-183.546	-272.395	-47.8908	-131.636	-269.434	-48.3288	-161.698	-256.147	-50.6997	-191.464	-269.883	-64.4533	-127.891	-269.472	-65.9841	-152.24	-258.314	-69.4944	-178.05	-252.273	-84.8526	-122.405	-242.193	-85.2076	-120.034	-262.294	-79.6332	-132.598	-263.237	-69.111	-71.8248	-244.72	-73.2872	-41.2934	-250.257	-38.923	-57.8577	
1	0.00833333	-193.858	-13.8447	-61.825	-184.379	-12.6372	-93.9326	-181.437	-10.2948	-121.718	-176.717	-7.97161	-148.281	-241.014	0.56048	-119.976	-236.178	-0.307849	-149.532	-227.993	-5.40816	-175.605	-251.165	-9.93984	-127.821	-246.641	-10.5185	-152.099	-234.2	-18.0235	-184.036	-258.492	-31.2069	-121.702	-252.571	-28.0338	-146.056	-243.947	-33.6914	-176.635	-256.398	-48.3977	-109.487	-253.597	-46.1866	-137.796	-250.66	-44.4851	-156.335	-255.967	-38.7981	-63.1206	-245.427	-45.34	-36.6047	-233.361	-12.6738	-51.7008	
2	0.0166667	-173.22	-12.2046	-50.3592	-161.815	-12.8497	-80.1964	-152.347	-7.89146	-113.767	-149.661	-9.67576	-132.543	-203.192	25.0481	-115.184	-200.639	20.8126	-138.121	-190.934	18.4177	-162.487	-223.251	15.2306	-117.831	-214.604	14.3994	-145.485	-202.38	8.01975	-174.206	-232.143	1.44275	-113.678	-226.666	-0.148784	-144.218	-221.75	-5.87573	-169.506	-243.201	-17.2082	-107.902	-238.03	-17.3207	-131.674	-231.4	-15.8938	-151.34	-241.846	-10.4425	-58.7291	-234.048	-23.0632	-33.0817	-211.435	1.51332	-41.9766	
3	0.025	-155.056	-9.7936	-46.7677	-145.686	-14.4377	-74.8139	-134.533	-13.387	-103.208	-128.389	-15.5377	-122.63	-176.855	30.7401	-107.305	-168.019	29.4358	-133.943	-167.391	21.8401	-153.792	-194.263	27.987	-109.919	-186.749	24.3255	-140.901	-178.056	15.1466	-168.36	-208.051	17.3162	-110.728	-204.287	14.6606	-137.395	-198.52	10.7677	-158.564	-221.366	1.04144	-100.46	-216.071	2.54671	-124.663	-213.637	3.34548	-146.141	-221.458	7.96497	-56.6624	-224.017	-8.57165	-29.9403	-190.573	12.251	-37.8598	
4	0.0333333	-147.802	-14.5584	-39.3712	-132.881	-17.7181	-71.7235	-119.762	-20.0367	-97.2666	-113.999	-21.8557	-119.669	-156.027	32.8597	-99.6375	-151.497	29.9618	-124.897	-145.331	23.9812	-149.396	-172.869	32.059	-111.159	-165.382	25.2988	-138.305	-158.987	17.0659	-162.458	-195.688	20.0641	-107.502	-186.007	19.3031	-134.722	-182.66	12.2187	-159.395	-210.483	7.70648	-101.779	-200.627	7.83563	-119.197	-198.549	9.56173	-142.443	-207.725	15.7426	-51.9524	-206.431	1.37851	-26.2443	-176.079	13.6996	-34.6392	
5	0.0416667	-141.008	-13.3849	-40.2643	-127.788	-19.7284	-68.0126	-115.924	-20.8458	-97.2974	-107.008	-25.3907	-117.467	-146.704	31.5448	-96.2777	-144.953	26.307	-126.628	-137.038	21.4667	-146.963	-168.353	29.3359	-108.968	-158.337	24.9687	-133.884	-153.212	13.5458	-161.674	-188.064	20.1523	-105.817	-180.568	17.6516	-133.168	-176.458	11.2704	-154.778	-201.184	9.50346	-98.2091	-194.13	8.03667	-115.61	-190.911	7.44677	-139.977	-197.393	15.3308	-46.6944	-202.095	0.601075	-23.4153	-165.898	13.7351	-30.7898	
6	0.05	-135.007	-14.754	-37.4849	-121.599	-22.5222	-66.5888	-113.372	-26.9715	-91.1031	-105.405	-28.9774	-113.362	-146.079	27.6879	-100.161	-137.08	24.3516	-120.72	-134.152	17.3803	-145.4	-164.94	26.7765	-108.371	-154.155	22.7254	-130.281	-145.849	10.9195	-161.653	-180.103	18.3032	-101.197	-175.689	15.1295	-128.714	-167.182	9.22911	-156.16	-199.114	6.15935	-98.3778	-189.986	4.99261	-120.591	-185.815	5.21098	-140.044	-192.495	11.7145	-46.0974	-200.431	-1.85966	-20.9197	-166.317	12.6207	-28.0036	
7	0.0583333	-133.068	-16.0585	-31.5474	-119.541	-24.2645	-61.8911	-105.973	-26.302	-92.175	-98.9054	-31.3911	-111.532	-143.345	27.2424	-98.4541	-133.705	21.3744	-124.538	-132.456	15.2255	-144.727	-161.574	25.2295	-107.271	-153.028	19.9376	-130.753	-139.424	7.39755	-162.17	-177.881	16.6608	-102.003	-175.832	11.815	-129.226	-168.412	5.65355	-152.502	-195.926	5.10885	-99.5908	-188.727	2.71028	-116.274	-181.945	2.00791	-141.84	-196.186	9.81655	-46.5231	-198.388	-1.82694	-21.8665	-162.18	14.2304	-27.2167	
8	0.0666667	-132.477	-14.4404	-34.49	-119.476	-22.3718	-64.349	-108.882	-25.7455	-90.087	-99.9789	-29.0987	-114.527	-143.188	27.6788	-96.499	-134.664	21.469	-125.748	-126.057	14.1449	-148.728	-161.62	25.8904	-104.27	-154.168	18.3498	-134.968	-141.856	7.13278	-160.361	-179.07	16.1984	-104.478	-175.072	12.026	-128.979	-164.073	5.49922	-154.415	-197.608	3.14352	-95.8514	-188.757	2.0627	-115.451	-183.472	1.45566	-140.388	-192.839	10.7223	-47.986	-198.255	-3.86306	-19.9063	-163.028	12.1361	-28.1367	
9	0.075	-135.018	-13.2401	-33.5099	-115.931	-21.2532	-63.9782	-104.153	-24.7805	-88.4592	-102.36	-28.8954	-111.334	-143.201	28.4069	-98.4754	-139.062	23.0006	-122.372	-131.729	15.3306	-147.429	-160.898	26.9513	-107.116	-151.976	20.9352	-133.06	-142.531	7.88577	-159.48	-176.728	18.0527	-105.284	-177.289	13.1713	-128.485	-166.864	5.25184	-153.687	-194.572	3.70902	-93.6993	-189.427	1.88174	-119.064	-182.888	0.900579	-139.376	-196.4	11.0712	-48.3588	-198.458	-0.0347616	-23.4779	-162.988	13.7907	-27.8013	
10	0.0833333	-133.843	-10.9879	-35.3444	-119.25	-19.9044	-63.6352	-107.343	-23.5303	-90.9946	-100.138	-27.2121	-113.877	-146.871	27.05	-100.259	-137.868	22.9062	-123.731	-133.761	13.9159	-150.042	-163.383	26.3407	-109.515	-154.75	20.1764	-132.632	-148.033	6.70915	-160.647	-184.375	15.1527	-105.395	-178.016	12.754	-129.052	-167.599	5.53222	-155.536	-195.779	3.44537	-94.3791	-190.621	2.58083	-118.549	-184.581	0.368626	-139.179	-197.366	11.163	-48.3233	-198.412	0.0171643	-24.8986	-166.252	15.1539	-29.3385	
11	0.0916667	-137.918	-13.4519	-33.1712	-117.381	-20.987	-61.6324	-106.185	-23.9593	-89.0564	-103.922	-27.4849	-111.213	-146.449	27.4362	-100.503	-138.891	22.0647	-126.162	-135.71	14.725	-146.689	-165.117	25.8429	-106.418	-157.967	19.0954	-135.095	-147.29	5.54122	-163.841	-184.559	15.0192	-102.792	-176.3	12.7123	-127.443	-172.123	4.59315	-152.55	-193.696	4.67007	-98.0328	-190.678	1.56491	-115.187	-187.505	0.0771345	-141.073	-198.072	13.5038	-48.9633	-201.615	-0.217912	-22.4975	-163.248	14.8398	-31.0057	
12	0.1	-138.338	-10.6438	-36.1737	-123.558	-20.8572	-62.7315	-106.472	-25.3824	-88.7737	-100.459	-28.503	-110.678	-146.291	27.2415	-101.383	-137.923	22.5804	-125.068	-135.183	14.8875	-145.608	-163.706	25.405	-107.769	-157.915	17.538	-135.91	-150.349	6.04721	-160.456	-186.341	14.3874	-104.442	-175.158	11.4614	-129.908	-171.441	2.70742	-153.396	-199.372	2.00593	-95.3026	-193.216	0.182975	-114.746	-186.434	0.777452	-140.321	-193.712	13.1131	-49.8456	-199.188	-1.15945	-19.8131	-165.741	13.0142	-29.074	
13	0.108333	-137.343	-12.4961	-32.9056	-119.679	-19.889	-63.4034	-107.207	-23.1758	-90.3898	-101.692	-28.2289	-112.257	-151.567	26.6062	-98.3521	-142.43	23.1084	-122.854	-136.185	13.5127	-149.456	-166.562	25.5543	-109.936	-157.594	18.1557	-135.195	-149.125	6.67973	-159.579	-184.351	14.9249	-105.844	-179.199	10.7405	-126.892	-171.984	2.67423	-151.577	-196.154	3.92946	-97.7488	-192.791	-0.486464	-120.098	-186.517	-0.157735	-139.371	-195.762	12.7415	-50.0672	-200.41	1.74516	-21.3147	-167.55	14.9938	-26.3933	
14	0.116667	-136.736	-9.27406	-33.2051	-121.697	-18.9134	-60.2944	-107.95	-23.0283	-88.0062	-104.094	-26.7539	-110.44	-153.135	26.8348	-101.754	-145.14	21.8028	-124.718	-137.604	12.8648	-148.547	-167.92	25.579	-106.766	-158.899	18.6123	-133.807	-150.702	3.95299	-164.508	-185.844	14.737	-105.076	-180.321	10.2559	-129.541	-172.518	2.35924	-150.963	-201.644	2.25482	-99.7578	-197.046	-0.353054	-116.44	-189.969	-0.698294	-142.599	-201.777	11.5379	-47.9086	-200.287	0.0241268	-22.9173	-170.244	16.1811	-29.6964	
15	0.125	-137.229	-8.46971	-34.1438	-122.927	-16.7736	-63.7363	-108.088	-19.4652	-92.444	-102.422	-26.6127	-109.492	-151.681	28.5719	-100.34	-141.868	23.6662	-125.099	-139.398	13.3231	-151.667	-171.88	25.4904	-106.893	-158.26	18.9471	-136.691	-150.657	7.18165	-161.493	-188.346	14.6172	-104.075	-180.199	10.6988	-127.813	-174.746	1.78257	-152.763	-203.084	1.63716	-98.9574	-194.916	-0.225537	-117.074	-188.154	-0.436238	-140.299	-199.265	12.5882	-50.7206	-201.186	0.368355	-22.2046	-169.18	20.0592	-31.2919	
16	0.133333	-136.616	-8.20376	-32.6514	-120.86	-15.8939	-66.0952	-109.655	-20.3209	-89.9073	-102.264	-24.0407	-113.721	-152.883	28.4103	-98.6501	-144.928	20.7311	-127.665	-139.046	14.0544	-149.164	-173.231	23.838	-106.029	-163.091	17.5653	-135.754	-152.427	5.64995	-161.255	-184.72	14.4077	-104.855	-181.874	9.5405	-131.018	-174.075	1.23797	-156.975	-200.748	0.94051	-99.2205	-195.463	-1.17388	-116.807	-189.12	-2.50707	-138.438	-200.275	10.8798	-46.8131	-200.771	2.6013	-23.0661	-170.903	19.4059	-32.3291	
